# xmcd
#
# Track frame offsets:
#	150
#	20062
#	45032
#	68792
#	84645
#	96962
#	110262
#
# Disc length: 1658 seconds
#
# Revision: 1
# Processed by: cddbd v1.5.2PL0 Copyright (c) Steve Scherf et al.
# Submitted via: audiograbber 1.83.01
#
DISCID=4e067807
DTITLE=Moring Star CD Single - Compilation Volume 11991
DYEAR=1900
DGENRE=
TTITLE0=Bishops - For Every Cross There Is A Crown
TTITLE1=Perrys - He Knows How
TTITLE2=Wilburns - Its Not So hard To Praise Him
TTITLE3=Isaacs  - The Beautiful Rose
TTITLE4=Fox Brothers - Don't Look Back
TTITLE5=Jimmie Davis - Dear Son
TTITLE6=Plainsmen - Come Along Little Lamb
EXTD=
EXTT0=
EXTT1=
EXTT2=
EXTT3=
EXTT4=
EXTT5=
EXTT6=
PLAYORDER=
